<svg width="24" height="24" viewBox="0 0 24 24" fill="none" xmlns="http://www.w3.org/2000/svg">
<path d="M11.565 4.73899L19.4023 17.9438C19.7223 18.4837 19.5386 19.1198 19.0842 19.4522C18.8886 19.5944 18.0608 19.3926 17.7842 19.1966C17.7842 19.1966 15.6664 18.1936 13.4241 17.2175C11.7508 16.4892 10.7432 15.9492 10.1545 15.9492C9.56574 15.9492 7.9497 16.8216 6.81768 17.3404C4.72552 18.2993 3.00279 19.1947 3.00279 19.1947C2.69657 19.3734 2.15131 19.5848 1.95177 19.4311C1.51714 19.0929 1.34724 18.4722 1.66136 17.9419L9.50054 4.73899C9.95888 3.96653 11.1067 3.96653 11.565 4.73899ZM19.3094 3C21.0716 3 22.5 4.38927 22.5 6.10328C22.5 7.81729 21.0716 9.20656 19.3094 9.20656C17.5472 9.20656 16.1188 7.81729 16.1188 6.10328C16.1188 4.38927 17.5472 3 19.3094 3Z" fill="url(#paint0_linear_3746_10983)"/>
<defs>
<linearGradient id="paint0_linear_3746_10983" x1="22.5" y1="11.25" x2="1.50001" y2="11.25" gradientUnits="userSpaceOnUse">
<stop stop-color="#F05C62"/>
<stop offset="1" stop-color="#E50075"/>
</linearGradient>
</defs>
</svg>