<svg width="64" height="64" viewBox="0 0 64 64" fill="none" xmlns="http://www.w3.org/2000/svg">
<path d="M5.37274 8L8.1276 17.5236H33.3294C35.9566 17.5236 38.0932 19.6616 38.0932 22.2874V27.0512H14.2874C6.40847 27.0512 0 33.461 0 41.3373C0 49.2163 6.40847 55.6247 14.2874 55.6247H33.3294C41.207 55.6247 47.6155 49.2163 47.6155 41.3373V31.8123V27.0512V22.2874C47.6155 14.4111 41.207 8 33.3294 8H5.37274ZM9.52364 41.3373C9.52364 38.7128 11.6602 36.5748 14.2874 36.5748H38.0932V41.3373C38.0932 43.9645 35.9566 46.0998 33.3294 46.0998H14.2874C11.6602 46.0998 9.52364 43.9645 9.52364 41.3373Z" fill="url(#paint0_linear)"/>
<path d="M61.2452 27.0515H52.5645V36.5751H64L61.2452 27.0515Z" fill="#E5007D"/>
<defs>
<linearGradient id="paint0_linear" x1="0.000598301" y1="55.6246" x2="47.6165" y2="55.6246" gradientUnits="userSpaceOnUse">
<stop stop-color="#FAB600"/>
<stop offset="0.0173497" stop-color="#FAB600"/>
<stop offset="1" stop-color="#E6007E"/>
</linearGradient>
</defs>
</svg>
