<svg width="24" height="18" viewBox="0 0 24 18" fill="none" xmlns="http://www.w3.org/2000/svg">
<path d="M12.7405 0.600586H2.87229L3.84377 3.96059H12.7405C13.6681 3.96059 14.4205 4.71293 14.4205 5.64059V7.32059H6.02047C3.23751 7.32059 0.980469 9.58493 0.980469 12.3606C0.980469 15.1435 3.24482 17.4006 6.02047 17.4006H12.7405C15.5234 17.4006 17.7805 15.1362 17.7805 12.3606V9.00059V7.32059V5.64059C17.7805 2.86493 15.5234 0.600586 12.7405 0.600586ZM14.4205 12.3679C14.4205 13.2955 13.6681 14.0479 12.7405 14.0479H6.02047C5.09282 14.0479 4.34047 13.2955 4.34047 12.3679C4.34047 11.4402 5.09282 10.6879 6.02047 10.6879H14.4205V12.3679Z" fill="white"/>
<path d="M22.0483 7.32031H18.9805V10.6803H23.0198L22.0483 7.32031Z" fill="white"/>
</svg>